<?xml version="1.0" encoding="UTF-8"?>
<svg xmlns="http://www.w3.org/2000/svg" xmlns:xlink="http://www.w3.org/1999/xlink" width="24px" height="24px" viewBox="0 0 24 24" version="1.1">
<g id="surface1">
<path style=" stroke:none;fill-rule:nonzero;fill:rgb(0%,0%,0%);fill-opacity:1;" d="M 6.007812 0.691406 C 5.207031 1.476562 5.015625 1.769531 5.097656 2.097656 C 5.132812 2.242188 6.835938 4.003906 9.953125 7.128906 L 14.765625 11.941406 L 9.953125 16.746094 C 6.894531 19.8125 5.132812 21.632812 5.089844 21.773438 C 5.003906 22.136719 5.199219 22.449219 5.992188 23.214844 C 7.179688 24.363281 6.363281 24.945312 13.171875 18.136719 C 16.355469 14.949219 18.984375 12.261719 19.011719 12.152344 C 19.046875 12.050781 19.035156 11.875 19.011719 11.765625 C 18.984375 11.644531 16.550781 9.144531 13.1875 5.78125 C 6.386719 -1.019531 7.1875 -0.453125 6.007812 0.691406 Z M 6.007812 0.691406 "/>
</g>
</svg>
