<?xml version="1.0" encoding="UTF-8"?>
<svg xmlns="http://www.w3.org/2000/svg" xmlns:xlink="http://www.w3.org/1999/xlink" width="24px" height="24px" viewBox="0 0 24 24" version="1.1">
<g id="surface1">
<path style=" stroke:none;fill-rule:nonzero;fill:rgb(0%,0%,0%);fill-opacity:1;" d="M 23.753906 6.441406 L 22.550781 5.242188 C 22.390625 5.082031 22.207031 5 22 5 C 21.789062 5 21.605469 5.082031 21.445312 5.242188 L 11.996094 14.691406 L 2.546875 5.242188 C 2.386719 5.082031 2.203125 5 1.996094 5 C 1.785156 5 1.601562 5.082031 1.441406 5.242188 L 0.242188 6.445312 C 0.078125 6.605469 0 6.789062 0 6.996094 C 0 7.203125 0.0820312 7.390625 0.242188 7.550781 L 11.445312 18.753906 C 11.605469 18.914062 11.789062 18.992188 11.996094 18.992188 C 12.207031 18.992188 12.390625 18.914062 12.550781 18.753906 L 23.753906 7.550781 C 23.914062 7.390625 23.992188 7.203125 23.992188 6.996094 C 23.992188 6.789062 23.914062 6.605469 23.753906 6.441406 Z M 23.753906 6.441406 "/>
</g>
</svg>
