<?xml version="1.0" encoding="UTF-8"?>
<svg xmlns="http://www.w3.org/2000/svg" xmlns:xlink="http://www.w3.org/1999/xlink" width="24px" height="24px" viewBox="0 0 24 24" version="1.1">
<g id="surface1">
<path style=" stroke:none;fill-rule:nonzero;fill:rgb(0%,0%,0%);fill-opacity:1;" d="M 10.84375 5.875 C 7.660156 9.066406 5.03125 11.753906 5.003906 11.855469 C 4.972656 11.964844 4.980469 12.144531 5.003906 12.253906 C 5.03125 12.363281 7.542969 14.941406 10.835938 18.234375 C 17.636719 25.035156 16.835938 24.464844 18.007812 23.316406 C 18.808594 22.542969 19.003906 22.246094 18.917969 21.917969 C 18.886719 21.773438 17.183594 20.015625 14.066406 16.886719 L 9.253906 12.074219 L 14.054688 7.273438 C 17.703125 3.625 18.867188 2.410156 18.917969 2.207031 C 18.996094 1.835938 18.824219 1.566406 18 0.773438 C 16.835938 -0.335938 17.644531 -0.910156 10.84375 5.875 Z M 10.84375 5.875 "/>
</g>
</svg>
