<?xml version="1.0" encoding="UTF-8"?>
<svg xmlns="http://www.w3.org/2000/svg" xmlns:xlink="http://www.w3.org/1999/xlink" width="24px" height="24px" viewBox="0 0 24 24" version="1.1">
<g id="surface1">
<path style=" stroke:none;fill-rule:nonzero;fill:rgb(1.176471%,0.392157%,1.568627%);fill-opacity:1;" d="M 3.125 13.5 L 0 13.5 L 0 21 L 2.222656 18.957031 C 4.398438 22.007812 7.964844 24 12 24 C 18.121094 24 23.167969 19.417969 23.90625 13.5 L 20.875 13.5 C 20.160156 17.757812 16.460938 21 12 21 C 8.839844 21 6.058594 19.371094 4.453125 16.90625 L 8.160156 13.5 Z M 3.125 13.5 "/>
<path style=" stroke:none;fill-rule:nonzero;fill:rgb(1.176471%,0.392157%,1.568627%);fill-opacity:1;" d="M 12 0 C 5.878906 0 0.832031 4.582031 0.09375 10.5 L 3.125 10.5 C 3.839844 6.242188 7.539062 3 12 3 C 15.253906 3 18.105469 4.726562 19.6875 7.3125 L 16.5 10.5 L 24 10.5 L 24 3 L 21.851562 5.148438 C 19.683594 2.035156 16.078125 0 12 0 Z M 12 0 "/>
</g>
</svg>
